<?xml version="1.0" encoding="UTF-8" standalone="no"?>
<!-- Created with Inkscape (http://www.inkscape.org/) -->

<svg
   xmlns:dc="http://purl.org/dc/elements/1.1/"
   xmlns:cc="http://creativecommons.org/ns#"
   xmlns:rdf="http://www.w3.org/1999/02/22-rdf-syntax-ns#"
   xmlns:svg="http://www.w3.org/2000/svg"
   xmlns="http://www.w3.org/2000/svg"
   xmlns:sodipodi="http://sodipodi.sourceforge.net/DTD/sodipodi-0.dtd"
   xmlns:inkscape="http://www.inkscape.org/namespaces/inkscape"
   version="1.1"
   id="svg815"
   width="60mm"
   height="60mm"
   viewBox="0 0 226.77165 226.77164"
   sodipodi:docname="graba-nostroke.svg"
   inkscape:version="0.92.4 (5da689c313, 2019-01-14)">
  <metadata
     id="metadata821">
    <rdf:RDF>
      <cc:Work
         rdf:about="">
        <dc:format>image/svg+xml</dc:format>
        <dc:type
           rdf:resource="http://purl.org/dc/dcmitype/StillImage" />
        <dc:title></dc:title>
      </cc:Work>
    </rdf:RDF>
  </metadata>
  <defs
     id="defs819" />
  <sodipodi:namedview
     pagecolor="#ffffff"
     bordercolor="#666666"
     borderopacity="1"
     objecttolerance="10"
     gridtolerance="10"
     guidetolerance="10"
     inkscape:pageopacity="0"
     inkscape:pageshadow="2"
     inkscape:window-width="3840"
     inkscape:window-height="2066"
     id="namedview817"
     showgrid="false"
     inkscape:zoom="1.0562344"
     inkscape:cx="-264.50801"
     inkscape:cy="-90.857674"
     inkscape:window-x="-11"
     inkscape:window-y="-11"
     inkscape:window-maximized="1"
     inkscape:current-layer="svg815"
     units="mm" />
  <path
     style="display:none;fill:none;fill-opacity:1;stroke:#002c00;stroke-width:7.9370079;stroke-linecap:round;stroke-linejoin:round;stroke-miterlimit:4;stroke-dasharray:none;stroke-opacity:1;paint-order:normal"
     d="m 136.99227,9.8960252 -44.892581,41.2792898 -10.95703,73.957035 11.32031,-6.64453 -11.74023,42.55859 11.94531,-5.17383 -19.933589,61.00391 81.30273,-109.94336 -36.50195,14.13477 32.65625,-67.597665 -37.04688,26.525395 z"
     id="path825-1-8-8"
     inkscape:connector-curvature="0" />
  <path
     style="fill:#ff004c;fill-opacity:1;stroke:none;stroke-width:1px;stroke-linecap:butt;stroke-linejoin:miter;stroke-opacity:1"
     d="M 81.14417,125.13241 92.099691,51.17532 136.99269,9.8965182 113.74928,78.217414 l 13.35229,-4.837674 -25.15924,39.5426 z"
     id="path825-1"
     inkscape:connector-curvature="0"
     inkscape:transform-center-x="-6.806167"
     inkscape:transform-center-y="-44.845154"
     sodipodi:nodetypes="ccccccc" />
  <path
     style="display:inline;fill:#00ff68;fill-opacity:1;stroke:none;stroke-width:1px;stroke-linecap:butt;stroke-linejoin:miter;stroke-opacity:1"
     d="m 80.72319,161.04557 c 12.010761,-52.5873 18.034924,-70.584442 35.673,-83.327666 8.5323,-6.164442 20.39754,-16.732697 33.79548,-24.247882 l -31.86895,65.968718 15.2329,-3.72399 -30.70193,35.74488 z"
     id="path825"
     inkscape:connector-curvature="0"
     sodipodi:nodetypes="csccccc" />
  <path
     style="display:inline;fill:#0094ff;fill-opacity:1;stroke:none;stroke-width:1px;stroke-linecap:butt;stroke-linejoin:miter;stroke-opacity:1"
     d="M 154.03817,106.93322 72.735205,216.87566 c 2.894406,-13.42998 9.424254,-26.90438 12.789527,-37.93699 7.846834,-28.61597 12.591665,-47.91439 32.797988,-57.90227 5.97989,-2.92355 25.8209,-11.55284 35.71545,-14.10318 z"
     id="path827"
     inkscape:connector-curvature="0"
     sodipodi:nodetypes="ccccc" />
  <path
     style="display:inline;fill:none;fill-opacity:1;stroke:#ffc400;stroke-width:3.40157485;stroke-linecap:round;stroke-linejoin:round;stroke-miterlimit:4;stroke-dasharray:none;stroke-opacity:1;paint-order:normal"
     d="M 136.99227,9.8960232 92.099691,51.17532 81.142657,125.13235 92.462972,118.48782 80.722737,161.04641 92.66805,155.87258 72.734458,216.87649 154.03719,106.93313 117.53524,121.0679 150.19149,53.470242 113.14461,79.995632 Z"
     id="path825-1-8"
     inkscape:connector-curvature="0" />
</svg>
